<svg width="14" height="13" viewBox="0 0 14 13" fill="none" xmlns="http://www.w3.org/2000/svg">
<g clip-path="url(#clip0_1_129)">
<path d="M6.78589 0.789062C6.94995 0.643229 7.1049 0.643229 7.25073 0.789062L12.9656 6.53125C13.1297 6.67708 13.1297 6.82292 12.9656 6.96875L7.25073 12.7109C7.1049 12.8568 6.94995 12.8568 6.78589 12.7109L6.23901 12.1641C6.18432 12.1094 6.15698 12.0365 6.15698 11.9453C6.15698 11.8542 6.18432 11.7721 6.23901 11.6992L10.4773 7.46094H1.15307C0.934326 7.46094 0.824951 7.35156 0.824951 7.13281V6.36719C0.824951 6.14844 0.934326 6.03906 1.15307 6.03906H10.4773L6.23901 1.80078C6.09318 1.63672 6.09318 1.48177 6.23901 1.33594L6.78589 0.789062Z" fill="black"/>
</g>
<defs>
<clipPath id="clip0_1_129">
<rect width="14" height="13" fill="white"/>
</clipPath>
</defs>
</svg>
