<svg width="46" height="46" viewBox="0 0 46 46" fill="none" xmlns="http://www.w3.org/2000/svg">
<g clip-path="url(#clip0_1_53)">
<path d="M28.2499 18C28.2499 15.243 26.0069 13 23.2499 13C20.4928 13 18.2499 15.243 18.2499 18H14.4999V29.875C14.4999 31.6009 15.899 33 17.6249 33H28.8749C30.6008 33 31.9999 31.6009 31.9999 29.875V18H28.2499ZM23.2499 14.875C24.973 14.875 26.3749 16.2769 26.3749 18H20.1249C20.1249 16.2769 21.5268 14.875 23.2499 14.875ZM30.1249 29.875C30.1249 30.5643 29.5641 31.125 28.8749 31.125H17.6249C16.9356 31.125 16.3749 30.5643 16.3749 29.875V19.875H18.2499V21.4375C18.2499 21.9553 18.6696 22.375 19.1874 22.375C19.7052 22.375 20.1249 21.9553 20.1249 21.4375V19.875H26.3749V21.4375C26.3749 21.9553 26.7946 22.375 27.3124 22.375C27.8302 22.375 28.2499 21.9553 28.2499 21.4375V19.875H30.1249V29.875Z" fill="black"/>
</g>
<defs>
<clipPath id="clip0_1_53">
<rect width="22.5" height="20" fill="white" transform="translate(12 13)"/>
</clipPath>
</defs>
</svg>
