<svg width="20" height="22" viewBox="0 0 20 22" fill="none" xmlns="http://www.w3.org/2000/svg">
<g clip-path="url(#clip0_1_2074)">
<path d="M19.7321 4.89844H0.267857C0.196817 4.89844 0.128687 4.87128 0.0784535 4.82293C0.0282206 4.77458 0 4.709 0 4.64062L0 3.60938C0 3.541 0.0282206 3.47542 0.0784535 3.42707C0.128687 3.37872 0.196817 3.35156 0.267857 3.35156H19.7321C19.8032 3.35156 19.8713 3.37872 19.9215 3.42707C19.9718 3.47542 20 3.541 20 3.60938V4.64062C20 4.709 19.9718 4.77458 19.9215 4.82293C19.8713 4.87128 19.8032 4.89844 19.7321 4.89844ZM19.7321 11.7734H0.267857C0.196817 11.7734 0.128687 11.7463 0.0784535 11.6979C0.0282206 11.6496 0 11.584 0 11.5156L0 10.4844C0 10.416 0.0282206 10.3504 0.0784535 10.3021C0.128687 10.2537 0.196817 10.2266 0.267857 10.2266H19.7321C19.8032 10.2266 19.8713 10.2537 19.9215 10.3021C19.9718 10.3504 20 10.416 20 10.4844V11.5156C20 11.584 19.9718 11.6496 19.9215 11.6979C19.8713 11.7463 19.8032 11.7734 19.7321 11.7734ZM19.7321 18.6484H0.267857C0.196817 18.6484 0.128687 18.6213 0.0784535 18.5729C0.0282206 18.5246 0 18.459 0 18.3906L0 17.3594C0 17.291 0.0282206 17.2254 0.0784535 17.1771C0.128687 17.1287 0.196817 17.1016 0.267857 17.1016H19.7321C19.8032 17.1016 19.8713 17.1287 19.9215 17.1771C19.9718 17.2254 20 17.291 20 17.3594V18.3906C20 18.459 19.9718 18.5246 19.9215 18.5729C19.8713 18.6213 19.8032 18.6484 19.7321 18.6484Z" fill="black" stroke="black"/>
</g>
<defs>
<clipPath id="clip0_1_2074">
<rect width="20" height="22" fill="white"/>
</clipPath>
</defs>
</svg>
