<svg width="46" height="46" viewBox="0 0 46 46" fill="none" xmlns="http://www.w3.org/2000/svg">
<path d="M25.5155 22.5003L31.6052 16.4106L32.8611 15.1548C33.0463 14.9695 33.0463 14.6685 32.8611 14.4832L31.5174 13.1395C31.3321 12.9543 31.0311 12.9543 30.8458 13.1395L23.5003 20.485L16.1548 13.1389C15.9695 12.9537 15.6685 12.9537 15.4832 13.1389L14.1389 14.4826C13.9537 14.6679 13.9537 14.9689 14.1389 15.1542L21.485 22.5003L14.1389 29.8458C13.9537 30.0311 13.9537 30.3321 14.1389 30.5174L15.4826 31.8611C15.6679 32.0463 15.9689 32.0463 16.1542 31.8611L23.5003 24.5155L29.59 30.6052L30.8458 31.8611C31.0311 32.0463 31.3321 32.0463 31.5174 31.8611L32.8611 30.5174C33.0463 30.3321 33.0463 30.0311 32.8611 29.8458L25.5155 22.5003Z" fill="black"/>
</svg>
