<svg width="134" height="24" viewBox="0 0 134 24" fill="none" xmlns="http://www.w3.org/2000/svg">
<path d="M14.0137 2.42731L9.91142 10.4071L5.80911 2.42731H0L7.33625 15.0493V23.6662H12.4866V15.019L19.8228 2.42731H14.0137Z" fill="black"/>
<path d="M17.7731 16.6877C17.7731 18.1441 18.1125 19.4185 18.7912 20.5107C19.4699 21.603 20.4082 22.4526 21.6059 23.0594C22.8037 23.6662 24.1511 23.9697 25.6483 23.9697C27.1455 23.9697 28.483 23.6662 29.6608 23.0594C30.8586 22.4526 31.7968 21.603 32.4755 20.5107C33.1742 19.4185 33.5236 18.1441 33.5236 16.6877C33.5236 15.2111 33.1742 13.9267 32.4755 12.8344C31.7968 11.7421 30.8586 10.8925 29.6608 10.2857C28.483 9.67889 27.1455 9.37547 25.6483 9.37547C24.1511 9.37547 22.8037 9.67889 21.6059 10.2857C20.4082 10.8925 19.4699 11.7421 18.7912 12.8344C18.1125 13.9267 17.7731 15.2111 17.7731 16.6877ZM22.4144 16.6877C22.4144 15.9595 22.5641 15.3325 22.8636 14.8066C23.163 14.2807 23.5523 13.8761 24.0314 13.5929C24.5105 13.3097 25.0495 13.1681 25.6483 13.1681C26.2272 13.1681 26.7563 13.3097 27.2354 13.5929C27.7344 13.8761 28.1237 14.2807 28.4032 14.8066C28.7026 15.3325 28.8523 15.9595 28.8523 16.6877C28.8523 17.4159 28.7026 18.043 28.4032 18.5689C28.1237 19.0746 27.7344 19.469 27.2354 19.7522C26.7563 20.0354 26.2272 20.177 25.6483 20.177C25.0495 20.177 24.5105 20.0354 24.0314 19.7522C23.5523 19.469 23.163 19.0746 22.8636 18.5689C22.5641 18.043 22.4144 17.4159 22.4144 16.6877Z" fill="black"/>
<path d="M40.9749 18.2048V9.70923H36.2438V18.6903C36.2438 20.3489 36.6331 21.6536 37.4116 22.6043C38.2101 23.5348 39.4677 24 41.1845 24C42.2026 24 43.051 23.7876 43.7297 23.3628C44.4085 22.9178 44.9574 22.3211 45.3767 21.5727V23.6662H49.8982V9.70923H45.3767V18.2048C45.3767 18.7509 45.2769 19.2162 45.0772 19.6005C44.8776 19.9848 44.5981 20.2781 44.2388 20.4804C43.8994 20.6827 43.4802 20.7838 42.9812 20.7838C42.2425 20.7838 41.7235 20.5613 41.4241 20.1163C41.1246 19.6511 40.9749 19.0139 40.9749 18.2048Z" fill="black"/>
<path d="M57.6894 13.1075H61.6121C63.0694 13.1075 64.347 12.9052 65.4449 12.5006C66.5628 12.0759 67.4412 11.469 68.08 10.6802C68.7387 9.89128 69.0681 8.94058 69.0681 7.82807C69.0681 6.61441 68.7387 5.61315 68.08 4.82427C67.4412 4.01517 66.5628 3.41846 65.4449 3.03413C64.347 2.62958 63.0694 2.42731 61.6121 2.42731H53.9165V23.6662H62.1211C63.778 23.6662 65.2153 23.464 66.4331 23.0594C67.6508 22.6346 68.589 21.9874 69.2478 21.1176C69.9265 20.2478 70.2659 19.1049 70.2659 17.689C70.2659 16.6169 70.0263 15.7067 69.5472 14.9583C69.0881 14.1896 68.4692 13.5626 67.6907 13.0771C66.9122 12.5714 66.0438 12.2073 65.0856 11.9848C64.1274 11.7623 63.1392 11.6511 62.1211 11.6511H57.6894V14.4425H61.5522C62.0513 14.4425 62.5004 14.493 62.8997 14.5942C63.3189 14.6751 63.6882 14.8167 64.0076 15.019C64.327 15.2212 64.5765 15.4842 64.7562 15.8078C64.9359 16.1315 65.0257 16.5158 65.0257 16.9608C65.0257 17.6485 64.866 18.1947 64.5466 18.5992C64.2472 18.9836 63.8379 19.2668 63.3189 19.4488C62.7999 19.6106 62.211 19.6915 61.5522 19.6915H58.977V6.40202H61.0731C61.9515 6.40202 62.6302 6.58407 63.1093 6.94817C63.5884 7.31226 63.8279 7.85841 63.8279 8.5866C63.8279 9.07206 63.7181 9.48673 63.4986 9.83059C63.279 10.1542 62.9596 10.4071 62.5403 10.5891C62.1411 10.7712 61.652 10.8622 61.0731 10.8622H57.6894V13.1075Z" fill="black"/>
<path d="M77.8136 9.70923H73.352V23.6662H77.8136V9.70923ZM81.7961 14.4425L83.7425 10.5284C83.5029 10.1643 83.1536 9.88116 82.6945 9.67889C82.2353 9.47661 81.7562 9.37547 81.2571 9.37547C80.4986 9.37547 79.7699 9.62832 79.0712 10.134C78.3725 10.6397 77.8036 11.3274 77.3644 12.1972C76.9452 13.067 76.7356 14.0582 76.7356 15.1707L77.8136 16.7788C77.8136 16.1113 77.9034 15.5449 78.0831 15.0796C78.2628 14.6144 78.5223 14.2604 78.8616 14.0177C79.201 13.775 79.5903 13.6536 80.0294 13.6536C80.4287 13.6536 80.7581 13.7244 81.0176 13.866C81.2971 14.0076 81.5566 14.1997 81.7961 14.4425Z" fill="black"/>
<path d="M89.1663 19.2971C89.1663 18.9532 89.2462 18.67 89.4059 18.4475C89.5656 18.2048 89.8051 18.0228 90.1245 17.9014C90.4439 17.78 90.8731 17.7193 91.4121 17.7193C92.1108 17.7193 92.7695 17.8205 93.3884 18.0228C94.0272 18.2048 94.5861 18.4779 95.0652 18.842V16.8091C94.8257 16.5461 94.4664 16.2933 93.9873 16.0506C93.5082 15.8078 92.9292 15.6056 92.2505 15.4437C91.5918 15.2819 90.8432 15.201 90.0047 15.201C88.2879 15.201 86.9604 15.5954 86.0222 16.3843C85.084 17.153 84.6148 18.2048 84.6148 19.5398C84.6148 20.4905 84.8344 21.2996 85.2736 21.9671C85.7327 22.6346 86.3316 23.1403 87.0702 23.4842C87.8288 23.8078 88.6473 23.9697 89.5256 23.9697C90.404 23.9697 91.2224 23.818 91.981 23.5145C92.7396 23.1909 93.3584 22.7257 93.8375 22.1188C94.3166 21.4918 94.5562 20.7332 94.5562 19.8432L94.0771 18.0228C94.0771 18.67 93.9374 19.2162 93.6579 19.6612C93.3784 20.1062 93.0191 20.4399 92.5799 20.6625C92.1407 20.885 91.6616 20.9962 91.1426 20.9962C90.7833 20.9962 90.4539 20.9355 90.1545 20.8142C89.855 20.6726 89.6155 20.4804 89.4358 20.2377C89.2561 19.9747 89.1663 19.6612 89.1663 19.2971ZM87.1601 13.9874C87.3597 13.866 87.6791 13.7143 88.1183 13.5322C88.5574 13.33 89.0665 13.158 89.6454 13.0164C90.2443 12.8748 90.8531 12.804 91.472 12.804C91.8912 12.804 92.2605 12.8445 92.5799 12.9254C92.9193 13.0063 93.1987 13.1378 93.4183 13.3198C93.6379 13.5019 93.7976 13.7244 93.8974 13.9874C94.0172 14.2301 94.0771 14.5234 94.0771 14.8673V23.6662H98.419V13.8357C98.419 12.8647 98.1395 12.0455 97.5805 11.378C97.0216 10.7105 96.263 10.2048 95.3048 9.86094C94.3466 9.49684 93.2586 9.31479 92.0409 9.31479C90.7433 9.31479 89.5456 9.48673 88.4477 9.83059C87.3497 10.1745 86.4115 10.5386 85.6329 10.9229L87.1601 13.9874Z" fill="black"/>
<path d="M110.758 15.1707V23.6662H115.459V14.6852C115.459 13.0063 115.07 11.7016 114.291 10.7712C113.513 9.84071 112.265 9.37547 110.548 9.37547C109.53 9.37547 108.672 9.58786 107.973 10.0126C107.294 10.4374 106.755 11.0341 106.356 11.8028V9.70923H101.804V23.6662H106.356V15.1707C106.356 14.6245 106.456 14.1593 106.655 13.775C106.855 13.3906 107.134 13.0973 107.494 12.8951C107.853 12.6928 108.272 12.5917 108.751 12.5917C109.47 12.5917 109.979 12.8142 110.279 13.2592C110.598 13.7042 110.758 14.3413 110.758 15.1707Z" fill="black"/>
<path d="M129.478 0V23.6662H134V0H129.478ZM118.22 16.6877C118.22 18.2453 118.529 19.5702 119.148 20.6625C119.787 21.7345 120.605 22.5537 121.603 23.1201C122.601 23.6865 123.659 23.9697 124.777 23.9697C125.935 23.9697 126.953 23.6764 127.832 23.0898C128.73 22.5032 129.439 21.6637 129.958 20.5714C130.477 19.4791 130.736 18.1846 130.736 16.6877C130.736 15.1707 130.477 13.8761 129.958 12.804C129.439 11.7118 128.73 10.8723 127.832 10.2857C126.953 9.69911 125.935 9.40581 124.777 9.40581C123.659 9.40581 122.601 9.689 121.603 10.2554C120.605 10.8217 119.787 11.641 119.148 12.713C118.529 13.7851 118.22 15.11 118.22 16.6877ZM122.981 16.6877C122.981 15.9595 123.13 15.3325 123.43 14.8066C123.729 14.2604 124.129 13.8458 124.628 13.5626C125.127 13.2592 125.676 13.1075 126.274 13.1075C126.794 13.1075 127.293 13.2491 127.772 13.5322C128.271 13.8154 128.68 14.2301 128.999 14.7762C129.319 15.3021 129.478 15.9393 129.478 16.6877C129.478 17.4362 129.319 18.0834 128.999 18.6296C128.68 19.1555 128.271 19.5601 127.772 19.8432C127.293 20.1264 126.794 20.268 126.274 20.268C125.676 20.268 125.127 20.1264 124.628 19.8432C124.129 19.5398 123.729 19.1252 123.43 18.5992C123.13 18.0531 122.981 17.4159 122.981 16.6877Z" fill="black"/>
</svg>
