<svg width="46" height="46" viewBox="0 0 46 46" fill="none" xmlns="http://www.w3.org/2000/svg">
<g clip-path="url(#clip0_1_4448)">
<path d="M32.8633 31.3164L28.1211 26.5742C28.0312 26.4844 27.9141 26.4375 27.7891 26.4375H27.2734C28.5039 25.0117 29.25 23.1562 29.25 21.125C29.25 16.6367 25.6133 13 21.125 13C16.6367 13 13 16.6367 13 21.125C13 25.6133 16.6367 29.25 21.125 29.25C23.1562 29.25 25.0117 28.5039 26.4375 27.2734V27.7891C26.4375 27.9141 26.4883 28.0312 26.5742 28.1211L31.3164 32.8633C31.5 33.0469 31.7969 33.0469 31.9805 32.8633L32.8633 31.9805C33.0469 31.7969 33.0469 31.5 32.8633 31.3164ZM21.125 27.375C17.6719 27.375 14.875 24.5781 14.875 21.125C14.875 17.6719 17.6719 14.875 21.125 14.875C24.5781 14.875 27.375 17.6719 27.375 21.125C27.375 24.5781 24.5781 27.375 21.125 27.375Z" fill="black" stroke="black" stroke-width="0.0390625"/>
</g>
<defs>
<clipPath id="clip0_1_4448">
<rect width="20" height="20" fill="white" transform="translate(13 13)"/>
</clipPath>
</defs>
</svg>
