<svg width="46" height="46" viewBox="0 0 46 46" fill="none" xmlns="http://www.w3.org/2000/svg">
<g clip-path="url(#clip0_23_96)">
<path d="M32.6288 19.6992L26.9218 18.8672L24.371 13.6953C23.914 12.7734 22.5897 12.7617 22.1288 13.6953L19.578 18.8672L13.871 19.6992C12.8476 19.8477 12.4374 21.1094 13.1796 21.832L17.3085 25.8555L16.3319 31.5391C16.1561 32.5664 17.2382 33.3359 18.1444 32.8555L23.2499 30.1719L28.3554 32.8555C29.2616 33.332 30.3436 32.5664 30.1679 31.5391L29.1913 25.8555L33.3202 21.832C34.0624 21.1094 33.6522 19.8477 32.6288 19.6992ZM27.1796 25.1992L28.1054 30.6055L23.2499 28.0547L18.3944 30.6055L19.3202 25.1992L15.3905 21.3711L20.8202 20.582L23.2499 15.6602L25.6796 20.582L31.1093 21.3711L27.1796 25.1992Z" fill="black"/>
</g>
<defs>
<clipPath id="clip0_23_96">
<rect width="22.5" height="20" fill="white" transform="translate(12 13)"/>
</clipPath>
</defs>
</svg>
