<svg width="46" height="46" viewBox="0 0 46 46" fill="none" xmlns="http://www.w3.org/2000/svg">
<g clip-path="url(#clip0_1_44)">
<path d="M26.25 24.875C25.1289 24.875 24.5898 25.5 22.75 25.5C20.9102 25.5 20.375 24.875 19.25 24.875C16.3516 24.875 14 27.2266 14 30.125V31.125C14 32.1602 14.8398 33 15.875 33H29.625C30.6602 33 31.5 32.1602 31.5 31.125V30.125C31.5 27.2266 29.1484 24.875 26.25 24.875ZM29.625 31.125H15.875V30.125C15.875 28.2656 17.3906 26.75 19.25 26.75C19.8203 26.75 20.7461 27.375 22.75 27.375C24.7695 27.375 25.6758 26.75 26.25 26.75C28.1094 26.75 29.625 28.2656 29.625 30.125V31.125ZM22.75 24.25C25.8555 24.25 28.375 21.7305 28.375 18.625C28.375 15.5195 25.8555 13 22.75 13C19.6445 13 17.125 15.5195 17.125 18.625C17.125 21.7305 19.6445 24.25 22.75 24.25ZM22.75 14.875C24.8164 14.875 26.5 16.5586 26.5 18.625C26.5 20.6914 24.8164 22.375 22.75 22.375C20.6836 22.375 19 20.6914 19 18.625C19 16.5586 20.6836 14.875 22.75 14.875Z" fill="black" stroke="black" stroke-width="0.0390625"/>
</g>
<defs>
<clipPath id="clip0_1_44">
<rect width="17.5" height="20" fill="white" transform="translate(14 13)"/>
</clipPath>
</defs>
</svg>
