<svg width="25" height="25" viewBox="0 0 25 25" fill="none" xmlns="http://www.w3.org/2000/svg">
<path fill-rule="evenodd" clip-rule="evenodd" d="M13.75 0C14.0815 0 14.3995 0.131249 14.6339 0.366249C14.8682 0.599999 15 0.91875 15 1.25V8.75C15 9.08125 14.8682 9.4 14.6339 9.63375C14.3995 9.86875 14.0815 10 13.75 10C13.4185 10 13.1005 9.86875 12.8661 9.63375C12.6318 9.4 12.5 9.08125 12.5 8.75V1.25C12.5 0.91875 12.6318 0.599999 12.8661 0.366249C13.1005 0.131249 13.4185 0 13.75 0ZM17.5 2.5C17.8315 2.5 18.1495 2.63125 18.3839 2.86625C18.6182 3.1 18.75 3.41875 18.75 3.75V11.25C18.75 11.5812 18.6182 11.9 18.3839 12.1338C18.1495 12.3688 17.8315 12.5 17.5 12.5C17.1685 12.5 16.8505 12.3688 16.6161 12.1338C16.3818 11.9 16.25 11.5812 16.25 11.25V3.75C16.25 3.41875 16.3818 3.1 16.6161 2.86625C16.8505 2.63125 17.1685 2.5 17.5 2.5ZM10 2.5C10.3315 2.5 10.6495 2.63125 10.8839 2.86625C11.1183 3.1 11.25 3.41875 11.25 3.75V10C11.25 10.3312 11.1183 10.65 10.8839 10.8838C10.6495 11.1188 10.3315 11.25 10 11.25C9.66848 11.25 9.35054 11.1188 9.11611 10.8838C8.8817 10.65 8.75 10.3312 8.75 10V3.75C8.75 3.41875 8.8817 3.1 9.11611 2.86625C9.35054 2.63125 9.66848 2.5 10 2.5ZM6.25 5C6.58152 5 6.89946 5.13125 7.13389 5.36625C7.3683 5.6 7.5 5.91875 7.5 6.25V11.25C7.5 11.5812 7.3683 11.9 7.13389 12.1338C6.89946 12.3688 6.58152 12.5 6.25 12.5C5.91848 12.5 5.60054 12.3688 5.36611 12.1338C5.1317 11.9 5 11.5812 5 11.25V6.25C5 5.91875 5.1317 5.6 5.36611 5.36625C5.60054 5.13125 5.91848 5 6.25 5Z" fill="#F3C4B7"/>
<path opacity="0.5" fill-rule="evenodd" clip-rule="evenodd" d="M16.2503 7.5137V6.2312H18.764V7.5137H16.2503ZM15.0003 7.5137H12.5003V6.2312H15.0003V7.5137ZM8.75029 6.2312H11.2503V7.5137H8.75029V6.2312ZM5.01404 6.2312H7.50029V7.5137H5.01404V6.2312Z" fill="#D09889"/>
<path fill-rule="evenodd" clip-rule="evenodd" d="M21.25 13.75V21.1637C20.5249 22.335 19.513 23.3025 18.31 23.9738C17.107 24.645 15.7526 24.9975 14.375 25H13.125C10.9701 25 8.9035 24.1437 7.37976 22.62C5.85603 21.0962 5 19.03 5 16.875V15.625C5.00973 14.9912 5.09791 14.3612 5.26251 13.75H21.25Z" fill="#F3C4B7"/>
<path d="M25 7.5H0V20H25V7.5Z" fill="#76A158"/>
<path d="M25 7.5H0V8.75H25V7.5Z" fill="#89AF6D"/>
<path opacity="0.7" d="M6.875 16.25C8.60089 16.25 10 14.8513 10 13.125C10 11.3987 8.60089 10 6.875 10C5.14911 10 3.75 11.3987 3.75 13.125C3.75 14.8513 5.14911 16.25 6.875 16.25Z" fill="#9FD17D"/>
<path fill-rule="evenodd" clip-rule="evenodd" d="M21.25 20V18.75H25V20H21.25ZM12.6762 20H0V18.75H12.5C12.5 17.4238 13.0268 16.1525 13.9645 15.215C14.9021 14.2762 16.1739 13.75 17.5 13.75V11.25C17.5 10.9188 17.6318 10.6 17.8661 10.3662C18.1005 10.1312 18.4185 10 18.75 10C19.0815 10 19.3995 10.1312 19.6339 10.3662C19.8682 10.6 20 10.9188 20 11.25V14.4437C20.4657 14.7262 20.8828 15.0825 21.235 15.4988V20H12.6762Z" fill="#669248"/>
<path fill-rule="evenodd" clip-rule="evenodd" d="M21.2497 18.75V21.1712H14.1447C13.798 20.46 13.6547 19.6662 13.7308 18.8787C13.807 18.09 14.0995 17.3388 14.576 16.7063C15.0526 16.075 15.6946 15.5862 16.4312 15.2962C17.1678 15.0062 17.9702 14.9262 18.7497 15.0637V11.25C18.7497 10.9188 18.8815 10.6 19.1158 10.3662C19.3502 10.1312 19.6682 10 19.9997 10C20.3312 10 20.6492 10.1312 20.8836 10.3662C21.118 10.6 21.2497 10.9188 21.2497 11.25V18.75Z" fill="#F3C4B7"/>
</svg>
