<svg width="56" height="18" viewBox="0 0 56 18" fill="none" xmlns="http://www.w3.org/2000/svg">
<path fill-rule="evenodd" clip-rule="evenodd" d="M50.9195 17.7676C50.9195 17.7676 50.5176 15.3215 50.3831 14.7065H44.5859C44.4251 15.1869 43.6231 17.7676 43.6231 17.7676H38.8934L45.601 1.77007C45.7677 1.29483 46.0914 0.889483 46.519 0.622159C46.9465 0.356583 47.4523 0.243016 47.9527 0.302422H51.4472L55.1163 17.7746H50.923L50.9195 17.7676ZM48.594 6.51378L48.2725 5.02165C48.0593 5.68734 47.6575 6.72868 47.6854 6.70072C47.6854 6.70072 46.2422 10.5655 45.8945 11.5789H49.6353C49.4483 10.7001 48.594 6.51378 48.594 6.51378ZM38.8655 4.32976C37.8089 3.85277 36.6572 3.62388 35.4986 3.66232C33.7077 3.66232 32.9057 4.40839 32.8778 5.15445C32.8778 5.98262 33.8405 6.51376 35.4427 7.31399C38.0355 8.53704 39.2376 10.0606 39.2114 12.0594C39.1852 15.6569 36.1119 17.9999 31.349 17.9999C29.6311 18.0052 27.9276 17.689 26.3257 17.0687L26.939 13.1497L27.554 13.4432C28.8664 14.0879 30.3148 14.4094 31.777 14.3762C32.363 14.4898 32.9707 14.378 33.4769 14.0617C33.9831 13.7437 34.3496 13.2458 34.5027 12.6692C34.5027 11.8969 33.9156 11.3361 32.1509 10.4834C30.4404 9.65874 28.169 8.2732 28.1952 5.76595C28.2232 2.3816 31.349 0.000146637 35.8131 0.000146637C37.1993 -0.00684221 38.5756 0.236039 39.8754 0.71827L39.2603 4.50447L38.8655 4.32976ZM18.9822 17.7676L21.8162 0.295437H26.3327L23.5005 17.7676H18.9822ZM8.10579 17.7676L4.07847 2.61747C3.94218 2.5371 3.79716 2.46374 3.65564 2.38686H6.35159L7.3475 3.08574L9.17509 5.88129L9.95085 8.02337L10.3003 9.79329L10.7825 12.1922L15.2152 0.295437H19.9991L12.8897 17.7676H8.0988H8.10579Z" fill="#1470B0"/>
<path fill-rule="evenodd" clip-rule="evenodd" d="M6.06283 4.65305C5.51892 4.22673 4.93361 3.8563 4.31562 3.54704L4.05877 2.57911C2.78278 1.82781 1.41979 1.2355 0 0.816168V0.274536H6.93818C7.35419 0.276283 7.7571 0.419531 8.07981 0.681613C8.4027 0.943695 8.62564 1.30888 8.7116 1.71598L10.2142 9.41594C9.10787 7.60583 7.70451 5.99665 6.06283 4.65305Z" fill="#FFB927"/>
</svg>
