<svg width="36" height="24" viewBox="0 0 36 24" fill="none" xmlns="http://www.w3.org/2000/svg">
<path d="M12 24C18.627 24 24 18.627 24 12C24 5.373 18.627 0 12 0C5.373 0 0 5.373 0 12C0 18.627 5.373 24 12 24Z" fill="#E70025"/>
<path d="M24 24C30.627 24 36 18.627 36 12C36 5.373 30.627 0 24 0C17.373 0 12 5.373 12 12C12 18.627 17.373 24 24 24Z" fill="#F59E2D"/>
<path fill-rule="evenodd" clip-rule="evenodd" d="M18 22.3815C16.176 21.33 14.661 19.818 13.608 17.9955C12.555 16.173 12 14.1045 12 12C12 9.89554 12.555 7.82705 13.608 6.00455C14.661 4.18205 16.176 2.67003 18 1.61853C19.824 2.67003 21.339 4.18205 22.392 6.00455C23.445 7.82705 24 9.89554 24 12C24 14.1045 23.445 16.173 22.392 17.9955C21.339 19.818 19.824 21.33 18 22.3815Z" fill="#FC5D1D"/>
</svg>
