<svg width="20" height="25" viewBox="0 0 20 25" fill="none" xmlns="http://www.w3.org/2000/svg">
<path fill-rule="evenodd" clip-rule="evenodd" d="M18.3773 18.0782L15.4792 19.159C15.3859 19.1914 15.2855 19.1869 15.1966 19.1442C15.1062 19.1015 15.0373 19.0265 15.0014 18.9322L13.4993 14.7624H6.46916L4.9713 18.9234C4.93543 19.0176 4.86655 19.0942 4.7776 19.1354C4.68865 19.1781 4.58823 19.184 4.49497 19.1516L1.60114 18.0709C1.55523 18.0561 1.51362 18.0326 1.47631 18.0002C1.44045 17.9693 1.41031 17.9295 1.38879 17.8868C1.36727 17.8426 1.35436 17.7941 1.35149 17.7455C1.34862 17.6969 1.35436 17.6468 1.37014 17.6012L7.22093 1.8464C7.45622 1.29719 7.8422 0.830421 8.33287 0.502074C8.82211 0.175199 9.39453 0 9.97846 0C10.5624 0 11.1348 0.175199 11.6241 0.502074C12.1148 0.830421 12.5007 1.29719 12.736 1.8464L18.6083 17.61C18.6241 17.6556 18.6298 17.7057 18.627 17.7543C18.6241 17.8029 18.6112 17.85 18.5897 17.8942C18.5681 17.9383 18.538 17.9766 18.5021 18.009C18.4648 18.0399 18.4232 18.0635 18.3773 18.0782ZM10.4433 5.82189L9.98279 4.49674V4.48642L7.33573 11.794H12.6327L10.4433 5.82189ZM1.36874 22.1008H18.6313C18.9986 22.1126 19.3457 22.2702 19.6011 22.5411C19.8565 22.812 20 23.1742 20 23.5497C20 23.9266 19.8565 24.2888 19.6011 24.5598C19.3457 24.8307 18.9986 24.9882 18.6313 25H1.36874C1.00145 24.9882 0.654254 24.8307 0.398874 24.5598C0.143494 24.2888 0 23.9266 0 23.5497C0 23.1742 0.143494 22.812 0.398874 22.5411C0.654254 22.2702 1.00145 22.1126 1.36874 22.1008Z" fill="#FC0018"/>
</svg>
