<svg width="67" height="18" viewBox="0 0 67 18" fill="none" xmlns="http://www.w3.org/2000/svg">
<path fill-rule="evenodd" clip-rule="evenodd" d="M17.0151 16.9967V6.90279H16.5543L13.2684 16.9967H9.3668H9.3555L6.07707 6.90279H5.62011V16.9967H0V0.000436247H5.62011C6.31318 -0.0090061 6.99112 0.204389 7.55388 0.606634C8.11853 1.00888 8.53964 1.58109 8.75492 2.24017L11.0646 10.0962H11.5499L13.8633 2.24017C14.0804 1.57921 14.5034 1.0051 15.0719 0.602859C15.6384 0.198726 16.3202 -0.0108946 17.0151 0.000436247H22.6352V16.9967H17.0151Z" fill="#52B461"/>
<path fill-rule="evenodd" clip-rule="evenodd" d="M37.7277 16.9967V6.90284H37.2991L33.7468 15.3726C33.5278 15.8561 33.1746 16.2678 32.7289 16.5567C32.2833 16.8437 31.762 16.9967 31.2314 16.9967H26.463V0.000488281H32.1284V10.0944H32.5779L36.1754 1.61512L36.2037 1.55092C36.4303 1.08825 36.7835 0.697345 37.2216 0.425406C37.6597 0.151577 38.1659 0.00803801 38.6814 0.00803801H43.4498V17.0043H37.7315L37.7277 16.9967Z" fill="#52B461"/>
<path fill-rule="evenodd" clip-rule="evenodd" d="M59.5756 11.3576H52.9131V16.9966H47.2477V7.54102H66.0436C65.46 8.74208 64.5347 9.74486 63.3846 10.4228C62.2345 11.1027 60.9088 11.4275 59.5756 11.3576Z" fill="#52B461"/>
<path fill-rule="evenodd" clip-rule="evenodd" d="M65.9434 5.67722H55.7229C51.0546 5.67722 47.172 3.22222 46.3542 0.000488281H59.617C63.1862 0.000488281 66.0793 2.10992 66.0793 4.71034C66.0793 5.03704 66.034 5.36185 65.9434 5.67722Z" fill="url(#paint0_linear_20_231)"/>
<defs>
<linearGradient id="paint0_linear_20_231" x1="66.0963" y1="2.83319" x2="46.3259" y2="2.83319" gradientUnits="userSpaceOnUse">
<stop stop-color="#198ECA"/>
<stop offset="1" stop-color="#1DB5E4"/>
</linearGradient>
</defs>
</svg>
