<svg width="35" height="26" viewBox="0 0 35 26" fill="none" xmlns="http://www.w3.org/2000/svg">
<path fill-rule="evenodd" clip-rule="evenodd" d="M22.4 25.2C29.3595 25.2 35.0001 19.5594 35.0001 12.6C35.0001 5.6406 29.3595 0 22.4 0C15.4406 0 9.80005 5.6406 9.80005 12.6C9.80005 19.5594 15.4406 25.2 22.4 25.2ZM22.4 17.5C25.1062 17.5 27.3001 15.3062 27.3001 12.6C27.3001 9.8938 25.1062 7.7 22.4 7.7C19.6938 7.7 17.5 9.8938 17.5 12.6C17.5 15.3062 19.6938 17.5 22.4 17.5Z" fill="#8A42F9"/>
<path d="M9.8 4.19995H0L5.22616 21H9.8V4.19995Z" fill="#8A42F9"/>
</svg>
