<svg width="30" height="30" viewBox="0 0 30 30" fill="none" xmlns="http://www.w3.org/2000/svg">
<path d="M16.641 14.6744L20.6125 10.7028L21.4315 9.88381C21.5524 9.76299 21.5524 9.56666 21.4315 9.44584L20.5552 8.56952C20.4344 8.4487 20.2381 8.4487 20.1173 8.56952L15.3267 13.3601L10.5362 8.56913C10.4153 8.44831 10.219 8.44831 10.0982 8.56913L9.22147 9.44545C9.10065 9.56627 9.10065 9.7626 9.22147 9.88342L14.0124 14.6744L9.22147 19.4649C9.10065 19.5857 9.10065 19.7821 9.22147 19.9029L10.0978 20.7792C10.2186 20.9 10.4149 20.9 10.5358 20.7792L15.3267 15.9887L19.2982 19.9602L20.1173 20.7792C20.2381 20.9 20.4344 20.9 20.5552 20.7792L21.4315 19.9029C21.5524 19.7821 21.5524 19.5857 21.4315 19.4649L16.641 14.6744Z" fill="white"/>
</svg>
