<svg width="18" height="18" viewBox="0 0 18 18" fill="none" xmlns="http://www.w3.org/2000/svg">
<path d="M16.3125 2.25H1.6875C0.755508 2.25 0 3.00551 0 3.9375V14.0625C0 14.9945 0.755508 15.75 1.6875 15.75H16.3125C17.2445 15.75 18 14.9945 18 14.0625V3.9375C18 3.00551 17.2445 2.25 16.3125 2.25ZM16.3125 3.9375V5.37205C15.5242 6.01397 14.2675 7.01213 11.5809 9.11584C10.9889 9.58156 9.81605 10.7004 9 10.6874C8.18409 10.7005 7.01089 9.58138 6.41907 9.11584C3.73289 7.01244 2.47588 6.01407 1.6875 5.37205V3.9375H16.3125ZM1.6875 14.0625V7.53743C2.49307 8.17907 3.63547 9.07945 5.37673 10.443C6.14514 11.0478 7.49081 12.3831 9 12.375C10.5018 12.3831 11.8304 11.0672 12.623 10.4432C14.3642 9.07977 15.5069 8.17914 16.3125 7.53747V14.0625H1.6875Z" fill="#666666"/>
</svg>
