<svg width="45" height="45" viewBox="0 0 45 45" fill="none" xmlns="http://www.w3.org/2000/svg">
<g clip-path="url(#clip0_1_354)">
<path d="M22.786 16.7891C22.95 16.6432 23.105 16.6432 23.2508 16.7891L28.9656 22.5312C29.1297 22.6771 29.1297 22.8229 28.9656 22.9688L23.2508 28.7109C23.105 28.8568 22.95 28.8568 22.786 28.7109L22.2391 28.1641C22.1844 28.1094 22.157 28.0365 22.157 27.9453C22.157 27.8542 22.1844 27.7721 22.2391 27.6992L26.4773 23.4609H17.1531C16.9344 23.4609 16.825 23.3516 16.825 23.1328V22.3672C16.825 22.1484 16.9344 22.0391 17.1531 22.0391H26.4773L22.2391 17.8008C22.0932 17.6367 22.0932 17.4818 22.2391 17.3359L22.786 16.7891Z" fill="black"/>
</g>
<defs>
<clipPath id="clip0_1_354">
<rect width="14" height="13" fill="white" transform="translate(16 16)"/>
</clipPath>
</defs>
</svg>
