<svg width="45" height="45" viewBox="0 0 45 45" fill="none" xmlns="http://www.w3.org/2000/svg">
<rect width="45" height="45" rx="3" fill="white"/>
<g clip-path="url(#clip0_24_102)">
<path d="M32.6289 19.6992L26.9219 18.8672L24.3711 13.6953C23.9141 12.7734 22.5899 12.7617 22.1289 13.6953L19.5781 18.8672L13.8711 19.6992C12.8477 19.8477 12.4375 21.1094 13.1797 21.832L17.3086 25.8555L16.3321 31.5391C16.1563 32.5664 17.2383 33.3359 18.1446 32.8555L23.25 30.1719L28.3555 32.8555C29.2617 33.332 30.3438 32.5664 30.168 31.5391L29.1914 25.8555L33.3203 21.832C34.0625 21.1094 33.6524 19.8477 32.6289 19.6992ZM27.1797 25.1992L28.1055 30.6055L23.25 28.0547L18.3946 30.6055L19.3203 25.1992L15.3906 21.3711L20.8203 20.582L23.25 15.6602L25.6797 20.582L31.1094 21.3711L27.1797 25.1992Z" fill="black"/>
</g>
<defs>
<clipPath id="clip0_24_102">
<rect width="22.5" height="20" fill="white" transform="translate(12 13)"/>
</clipPath>
</defs>
</svg>
