<svg width="36" height="36" viewBox="0 0 36 36" fill="none" xmlns="http://www.w3.org/2000/svg">
<g clip-path="url(#clip0_1_3827)">
<path d="M18.2139 12.7891C18.0498 12.6432 17.8949 12.6432 17.749 12.7891L12.0342 18.5312C11.8701 18.6771 11.8701 18.8229 12.0342 18.9688L17.749 24.7109C17.8949 24.8568 18.0498 24.8568 18.2139 24.7109L18.7607 24.1641C18.8154 24.1094 18.8428 24.0365 18.8428 23.9453C18.8428 23.8542 18.8154 23.7721 18.7607 23.6992L14.5225 19.4609H23.8467C24.0654 19.4609 24.1748 19.3516 24.1748 19.1328V18.3672C24.1748 18.1484 24.0654 18.0391 23.8467 18.0391H14.5225L18.7607 13.8008C18.9066 13.6367 18.9066 13.4818 18.7607 13.3359L18.2139 12.7891Z" fill="black"/>
</g>
<defs>
<clipPath id="clip0_1_3827">
<rect width="14" height="13" fill="white" transform="matrix(-1 0 0 1 25 12)"/>
</clipPath>
</defs>
</svg>
