<svg width="23" height="20" viewBox="0 0 23 20" fill="none" xmlns="http://www.w3.org/2000/svg">
<g clip-path="url(#clip0_1_2918)">
<path d="M20.6287 6.69923L14.9217 5.8672L12.3709 0.695319C11.9138 -0.226556 10.5896 -0.238274 10.1287 0.695319L7.5779 5.8672L1.87087 6.69923C0.847431 6.84766 0.437274 8.10938 1.17946 8.83204L5.30837 12.8555L4.33181 18.5391C4.15602 19.5664 5.23806 20.3359 6.14431 19.8555L11.2498 17.1719L16.3552 19.8555C17.2615 20.332 18.3435 19.5664 18.1677 18.5391L17.1912 12.8555L21.3201 8.83204C22.0623 8.10938 21.6521 6.84766 20.6287 6.69923ZM15.1795 12.1992L16.1052 17.6055L11.2498 15.0547L6.39431 17.6055L7.32009 12.1992L3.3904 8.3711L8.82009 7.58204L11.2498 2.66016L13.6795 7.58204L19.1092 8.3711L15.1795 12.1992Z" fill="black"/>
</g>
<defs>
<clipPath id="clip0_1_2918">
<rect width="22.5" height="20" fill="white"/>
</clipPath>
</defs>
</svg>
