<svg width="30" height="30" viewBox="0 0 30 30" fill="none" xmlns="http://www.w3.org/2000/svg">
<path fill-rule="evenodd" clip-rule="evenodd" d="M14.5 27C21.4029 27 27 21.4029 27 14.5C27 7.59706 21.4029 2 14.5 2C7.59706 2 2 7.59706 2 14.5C2 21.4029 7.59706 27 14.5 27ZM13.8323 19.6471H6.40737C6.66031 16.5985 8.46323 15.2867 9.84706 14.2794C10.7515 13.622 11.4765 13.0956 11.4765 12.3C11.4765 11.4162 10.747 11.1059 9.97204 11.1059C8.93381 11.1059 8.08087 11.4471 7.29116 11.803L6.74854 10.1765C7.63236 9.77353 8.8559 9.3235 10.3133 9.3235C12.5912 9.3235 13.6926 10.4706 13.6926 12.0824C13.6926 13.6794 12.4515 14.625 11.2559 15.5368C10.3382 16.2353 9.44851 16.9132 9.16616 17.8485H13.8323V19.6471ZM19.0559 17.2132H14.4838V15.8647L19.5985 9.35438H21.1176V15.5088H22.6367V17.2132H21.1176V19.6471H19.0559V17.2132Z" fill="#666666"/>
</svg>
