<svg width="30" height="30" viewBox="0 0 30 30" fill="none" xmlns="http://www.w3.org/2000/svg">
<path fill-rule="evenodd" clip-rule="evenodd" d="M22.1213 22.5643C22.0942 22.8611 21.9843 23.143 21.8032 23.3727C21.622 23.6038 21.3796 23.7708 21.1072 23.8558C20.8333 23.9408 20.5424 23.9378 20.27 23.8483C19.999 23.7589 19.7594 23.5859 19.5825 23.3517C18.0279 22.0603 15.6032 20.1991 15.6032 20.1991C15.6032 20.1991 13.8489 23.4308 13.5351 23.7619C13.431 23.8528 13.3112 23.9199 13.1814 23.9602C13.0502 23.999 12.9147 24.0094 12.7806 23.9915C12.6466 23.9721 12.5168 23.9244 12.4013 23.8513C12.2857 23.7783 12.1859 23.6799 12.1088 23.5635C12.0932 23.5128 12.0732 23.4621 12.0518 23.4144L13.0359 18.2665L20.0532 11.0591L10.4829 16.7692C10.4829 16.7692 6.16133 15.4181 5.51951 15.1541C5.35406 15.0587 5.21714 14.917 5.12586 14.7455C5.03458 14.5726 4.99035 14.3772 5.00176 14.1804C5.01175 13.9836 5.07596 13.7927 5.18436 13.6331C5.29418 13.472 5.44535 13.3468 5.61936 13.2722C6.53217 12.786 22.6347 6.35559 23.1767 6.19006C23.7187 6.02452 25.1449 5.59354 24.988 7.04456C24.8311 8.49558 22.2781 21.7665 22.1213 22.5643Z" fill="#666666"/>
</svg>
