<svg width="30" height="30" viewBox="0 0 30 30" fill="none" xmlns="http://www.w3.org/2000/svg">
<path fill-rule="evenodd" clip-rule="evenodd" d="M15.0005 26C12.9265 25.9941 10.8966 25.399 9.14825 24.2808L4 26L5.7161 20.841C4.42391 18.7736 3.85332 16.3345 4.09386 13.9071C4.33588 11.4812 5.37725 9.20216 7.05226 7.43304C8.72727 5.66245 10.942 4.50014 13.3489 4.12839C15.7559 3.75664 18.217 4.19749 20.3467 5.3818C22.475 6.56465 24.1515 8.42336 25.1107 10.6641C26.0714 12.9064 26.2591 15.4043 25.6475 17.7656C25.0359 20.1269 23.6572 22.2164 21.7299 23.7078C19.8026 25.1977 17.4353 26.0044 15.0005 26ZM17.3913 16.6489C18.1232 16.8855 18.8668 17.0824 19.6207 17.2367C19.6999 17.2484 19.7762 17.2763 19.8437 17.3175C19.9126 17.3601 19.9727 17.4145 20.0182 17.4806C20.0651 17.5453 20.0974 17.6187 20.115 17.698C20.1326 17.7759 20.1341 17.8568 20.1194 17.9361V18.3592C20.1267 18.5106 20.0989 18.6605 20.0372 18.7986C19.9771 18.9367 19.8833 19.0586 19.7674 19.1556C19.4066 19.523 18.9783 19.8184 18.506 20.0256C17.8093 20.1078 17.1038 20.0461 16.4335 19.8448C15.7617 19.642 15.1399 19.304 14.6045 18.85C13.9151 18.3857 13.2712 17.8582 12.6831 17.2705C12.0979 16.6783 11.5669 16.0332 11.099 15.3441C10.6502 14.8078 10.3143 14.1848 10.1163 13.5133C9.91682 12.8433 9.85665 12.138 9.94025 11.443C10.1471 10.9728 10.4404 10.5466 10.8057 10.1851C10.8981 10.0661 11.0198 9.97213 11.1577 9.91188C11.2955 9.85017 11.4481 9.82512 11.5977 9.83834H12.023C12.1829 9.8163 12.3457 9.85894 12.4748 9.95592C12.6053 10.0544 12.6904 10.1999 12.7124 10.36C12.9324 11.2299 13.0938 11.8588 13.3138 12.5641C13.4018 12.858 13.2991 12.9285 13.0644 13.1048C12.9177 13.2179 12.8004 13.3002 12.6831 13.3869C12.6156 13.4163 12.554 13.4604 12.5041 13.5147C12.4543 13.5691 12.4161 13.6352 12.3926 13.7058C12.3692 13.7763 12.3604 13.8497 12.3677 13.9247C12.375 13.9981 12.397 14.0701 12.4337 14.1348C12.8077 14.8563 13.2874 15.519 13.8564 16.1008C14.4358 16.671 15.0988 17.1499 15.8219 17.5217C15.8864 17.557 15.9583 17.5805 16.0316 17.5863C16.105 17.5937 16.1797 17.5849 16.2501 17.5614C16.3205 17.5379 16.3851 17.5012 16.4408 17.4512C16.4951 17.4012 16.5391 17.3409 16.5699 17.2734C16.6579 17.1543 16.7313 17.0427 16.8486 16.8899C16.8662 16.837 16.8955 16.7885 16.9336 16.7474C16.9703 16.7047 17.0158 16.6724 17.0671 16.6489C17.117 16.6254 17.1728 16.6122 17.2285 16.6107C17.2842 16.6092 17.3399 16.6181 17.3913 16.6387V16.6489Z" fill="#666666"/>
</svg>
