<svg width="30" height="30" viewBox="0 0 30 30" fill="none" xmlns="http://www.w3.org/2000/svg">
<path fill-rule="evenodd" clip-rule="evenodd" d="M23.0667 14.06L21.6 13.7333C20.0439 13.7333 18.5523 13.0878 17.4523 11.9363C16.3508 10.7863 15.7333 9.22687 15.7333 7.6L15.4253 6.06667L15.1467 3H14.8533L14.5747 6.06667L14.2667 7.6C14.2667 9.22687 13.6492 10.7863 12.5477 11.9363C11.4477 13.0878 9.95613 13.7333 8.4 13.7333L6.93333 14.06L4 14.339V9.13333C4 7.50647 4.61746 5.94706 5.71893 4.79706C6.81893 3.64553 8.31053 3 9.86667 3H20.1333C21.6895 3 23.1811 3.64553 24.2811 4.79706C25.3825 5.94706 26 7.50647 26 9.13333V14.3467L23.0667 14.06ZM6.93333 14.94L8.4 15.2667C9.95613 15.2667 11.4477 15.9122 12.5477 17.0637C13.6492 18.2137 14.2667 19.7731 14.2667 21.4L14.5747 22.9333L14.8533 26H15.1467L15.4253 22.9333L15.7333 21.4C15.7333 19.7731 16.3508 18.2137 17.4523 17.0637C18.5523 15.9122 20.0439 15.2667 21.6 15.2667L23.0667 14.94L26 14.661V19.8667C26 21.4935 25.3825 23.0529 24.2811 24.2029C23.1811 25.3545 21.6895 26 20.1333 26H9.86667C8.31053 26 6.81893 25.3545 5.71893 24.2029C4.61746 23.0529 4 21.4935 4 19.8667V14.661L6.93333 14.94Z" fill="#666666"/>
</svg>
