<svg width="14" height="13" viewBox="0 0 14 13" fill="none" xmlns="http://www.w3.org/2000/svg">
<g clip-path="url(#clip0_93_1413)">
<path d="M6.78614 0.789062C6.9502 0.643229 7.10515 0.643229 7.25098 0.789062L12.9658 6.53125C13.1299 6.67708 13.1299 6.82292 12.9658 6.96875L7.25098 12.7109C7.10515 12.8568 6.9502 12.8568 6.78614 12.7109L6.23926 12.1641C6.18457 12.1094 6.15723 12.0365 6.15723 11.9453C6.15723 11.8542 6.18457 11.7721 6.23926 11.6992L10.4775 7.46094H1.15332C0.93457 7.46094 0.825195 7.35156 0.825195 7.13281V6.36719C0.825195 6.14844 0.93457 6.03906 1.15332 6.03906H10.4775L6.23926 1.80078C6.09343 1.63672 6.09343 1.48177 6.23926 1.33594L6.78614 0.789062Z" fill="black"/>
</g>
<defs>
<clipPath id="clip0_93_1413">
<rect width="14" height="13" fill="white"/>
</clipPath>
</defs>
</svg>
