<svg width="36" height="36" viewBox="0 0 36 36" fill="none" xmlns="http://www.w3.org/2000/svg">
<g clip-path="url(#clip0_1_93)">
<path d="M17.786 12.7891C17.95 12.6432 18.105 12.6432 18.2508 12.7891L23.9656 18.5312C24.1297 18.6771 24.1297 18.8229 23.9656 18.9688L18.2508 24.7109C18.105 24.8568 17.95 24.8568 17.786 24.7109L17.2391 24.1641C17.1844 24.1094 17.157 24.0365 17.157 23.9453C17.157 23.8542 17.1844 23.7721 17.2391 23.6992L21.4773 19.4609H12.1531C11.9344 19.4609 11.825 19.3516 11.825 19.1328V18.3672C11.825 18.1484 11.9344 18.0391 12.1531 18.0391H21.4773L17.2391 13.8008C17.0932 13.6367 17.0932 13.4818 17.2391 13.3359L17.786 12.7891Z" fill="black"/>
</g>
<defs>
<clipPath id="clip0_1_93">
<rect width="14" height="13" fill="white" transform="translate(11 12)"/>
</clipPath>
</defs>
</svg>
