<svg width="36" height="36" viewBox="0 0 36 36" fill="none" xmlns="http://www.w3.org/2000/svg">
<g clip-path="url(#clip0_1_96)">
<path d="M18.214 12.7891C18.05 12.6432 17.895 12.6432 17.7492 12.7891L12.0344 18.5312C11.8703 18.6771 11.8703 18.8229 12.0344 18.9688L17.7492 24.7109C17.895 24.8568 18.05 24.8568 18.214 24.7109L18.7609 24.1641C18.8156 24.1094 18.843 24.0365 18.843 23.9453C18.843 23.8542 18.8156 23.7721 18.7609 23.6992L14.5227 19.4609H23.8469C24.0656 19.4609 24.175 19.3516 24.175 19.1328V18.3672C24.175 18.1484 24.0656 18.0391 23.8469 18.0391H14.5227L18.7609 13.8008C18.9068 13.6367 18.9068 13.4818 18.7609 13.3359L18.214 12.7891Z" fill="black"/>
</g>
<defs>
<clipPath id="clip0_1_96">
<rect width="14" height="13" fill="white" transform="matrix(-1 0 0 1 25 12)"/>
</clipPath>
</defs>
</svg>
